<svg xmlns="http://www.w3.org/2000/svg" version="1.1" xmlns:xlink="http://www.w3.org/1999/xlink" width="1000" height="1000"><style>
    #light-icon {
      display: inline;
    }
    #dark-icon {
      display: none;
    }

    @media (prefers-color-scheme: dark) {
      #light-icon {
        display: none;
      }
      #dark-icon {
        display: inline;
      }
    }
  </style><g id="light-icon"><svg xmlns="http://www.w3.org/2000/svg" version="1.1" xmlns:xlink="http://www.w3.org/1999/xlink" width="1000" height="1000"><g><g transform="matrix(0.8333333333333334,0,0,0.8333333333333334,0,0)"><svg xmlns="http://www.w3.org/2000/svg" version="1.1" xmlns:xlink="http://www.w3.org/1999/xlink" id="Layer_1" x="0px" y="0px" width="1200px" height="1200px" viewBox="0 0 1200 1200" enable-background="new 0 0 1200 1200" xml:space="preserve"><g>
	<g>
		<path fill="#5B7682" d="M460.346,257.996c16.095-38.25,53.283-70.954,91.388-86.206c41.4-16.242,87.378-15.491,128.174,2.014
			c61.23,26.679,81.226,72.693,110.01,127.954l61.816,118.799c38.818,73.92,77.051,148.132,114.771,222.656
			c17.285,33.729,48.889,91.992,62.549,126.123c17.98,37.023,120.483,222.29,124.219,245.435l-1.904,2.454
			c-21.57,8.057-246.496,2.16-274.072-4.469c-39.514-9.668-75.146-31.127-102.137-61.596
			c-25.488-28.235-43.542-66.432-61.23-100.306L653.247,734.07c-11.792-22.705-25.231-50.098-38.379-71.777l0.073-0.843
			c-4.211-9.302-9.521-19.593-14.282-28.675c-17.981-34.057-33.93-70.239-52.478-103.875
			c-26.331-48.065-76.245-78.534-131.067-79.907c-13.165-0.385-38.782,2.252-50.208-0.971l-0.916-2.856
			C368.628,425.812,446.063,283.686,460.346,257.996z"></path>
		<path fill="#27343E" d="M460.346,257.996c-0.934,17.285-8.551,35.815-8.551,54.163C452.032,492.48,646.216,581.58,790.539,634.24
			c48.011,17.506,96.79,26.953,139.856,50.537c18.896,10.547,36.657,23.219,52.624,37.83c8.753,7.764,41.712,45.008,45.96,46.802
			c17.944,36.95,120.41,222.217,124.183,245.361l-1.868,2.454c-21.606,8.057-246.497,2.16-274.072-4.469
			c-39.551-9.668-75.146-31.127-102.173-61.596c-25.488-28.235-43.543-66.432-61.23-100.306L653.137,734.07
			c-11.828-22.669-25.231-50.098-38.415-71.777l0.073-0.843c-4.102-9.302-9.448-19.556-14.282-28.675
			c-17.944-34.057-33.856-70.239-52.441-103.839c-26.331-48.102-76.245-78.57-131.067-79.943
			c-13.166-0.385-38.782,2.252-50.208-0.971l-0.879-2.856C368.628,425.812,446.063,283.686,460.346,257.996z"></path>
		<path fill="#5B7682" d="M185.431,795.923c17.34-38.269,34.516-67.565,68.262-93.384c55.426-42.334,115.796-39.807,181.494-39.807
			l107.923,0.072c21.075,0,48.907,0.77,69.379-1.062l2.453-0.293l-0.073,0.843c-13.843,19.519-27.722,49.182-38.983,70.824
			l-62.769,120.264c-43.506,82.764-75.787,140.332-177.301,161.463c-46.234,9.668-110.486,3.296-159.192,5.457
			c-16.424,0.769-85.418,1.391-98.364-0.77L75,1013.709c1.392-7.068,25.836-53.504,30.414-62.256L185.431,795.923z"></path>
		<path fill="#27343E" d="M185.431,795.923c0.989,11.683-1.227,48.779-1.3,64.453c-0.312,52.808-0.201,105.579,0.366,158.46
			c-28.985-0.074-78.681-1.611-106.201,0.769l-3.259-5.823c1.428-7.067,25.836-53.503,30.414-62.256L185.431,795.923z"></path>
	</g>
	<rect fill="none" width="1200" height="1200"></rect>
</g></svg></g></g></svg></g><g id="dark-icon"><svg xmlns="http://www.w3.org/2000/svg" version="1.1" xmlns:xlink="http://www.w3.org/1999/xlink" width="1000" height="1000"><g><g transform="matrix(31.25,0,0,31.25,0,0)"><svg xmlns="http://www.w3.org/2000/svg" version="1.1" xmlns:xlink="http://www.w3.org/1999/xlink" id="Layer_1" x="0px" y="0px" width="32px" height="32px" viewBox="0 0 32 32" enable-background="new 0 0 32 32" xml:space="preserve"><g>
	<g>
		<g>
			<path fill="#EAF7FE" d="M16.542,4.444v0.25c0.579,0,1.144,0.116,1.676,0.345c1.432,0.624,1.968,1.664,2.646,2.979l0.164,0.317
				l1.648,3.169c1.012,1.927,2.041,3.923,3.06,5.933c0.104,0.207,0.229,0.445,0.364,0.703c0.453,0.869,1.016,1.949,1.301,2.656
				c0.151,0.312,0.525,1.016,0.959,1.83c0.766,1.436,1.992,3.742,2.274,4.467c-0.222,0.025-0.723,0.059-1.835,0.059
				c-2.07,0-4.724-0.109-5.159-0.215c-1.01-0.248-1.907-0.789-2.599-1.566c-0.568-0.629-0.995-1.459-1.409-2.262l-0.188-0.359
				l-1.618-3.115L17.6,19.193c-0.247-0.482-0.503-0.982-0.763-1.418v-0.008l-0.026-0.059c-0.114-0.252-0.258-0.533-0.388-0.777
				c-0.213-0.4-0.413-0.812-0.614-1.226c-0.251-0.514-0.51-1.044-0.787-1.546c-0.742-1.355-2.163-2.222-3.708-2.262l-0.085-0.001
				c-0.101,0-0.221,0.005-0.347,0.009c-0.137,0.004-0.279,0.009-0.415,0.009c-0.085,0-0.158-0.002-0.224-0.006
				c0.292-0.762,1.695-3.407,2.447-4.76c0.382-0.906,1.284-1.757,2.297-2.162c0.497-0.195,1.021-0.295,1.553-0.295V4.444
				 M16.542,4.444c-0.558,0-1.114,0.104-1.644,0.312c-1.016,0.407-2.008,1.279-2.437,2.299c-0.383,0.686-2.445,4.476-2.518,4.991
				l0.024,0.076c0.121,0.034,0.302,0.044,0.498,0.044c0.263,0,0.553-0.019,0.762-0.019c0.027,0,0.054,0,0.078,0.001
				c1.462,0.037,2.793,0.849,3.495,2.132c0.496,0.896,0.92,1.861,1.399,2.769c0.128,0.24,0.27,0.516,0.382,0.764l-0.002,0.023
				c0.352,0.578,0.709,1.309,1.023,1.914l1.618,3.115c0.472,0.9,0.953,1.922,1.633,2.674c0.72,0.811,1.67,1.385,2.725,1.643
				c0.479,0.115,3.224,0.223,5.219,0.223c1.048,0,1.89-0.029,2.088-0.104l0.051-0.066c-0.101-0.617-2.833-5.557-3.312-6.545
				c-0.365-0.91-1.207-2.463-1.667-3.363c-1.006-1.987-2.025-3.965-3.062-5.937L21.25,8.221c-0.769-1.473-1.302-2.701-2.935-3.412
				C17.751,4.566,17.146,4.444,16.542,4.444L16.542,4.444z"></path>
		</g>
		<path fill="#EAF7FE" d="M12.463,7.054c-0.025,0.461-0.228,0.955-0.228,1.444c0.006,4.809,5.184,7.185,9.033,8.589
			c1.281,0.467,2.581,0.719,3.729,1.348c0.504,0.281,0.978,0.619,1.404,1.008c0.233,0.207,1.112,1.201,1.225,1.248
			c0.479,0.986,3.212,5.926,3.312,6.543l-0.05,0.066c-0.576,0.215-6.573,0.057-7.309-0.119c-1.054-0.258-2.003-0.83-2.724-1.643
			c-0.68-0.752-1.161-1.771-1.633-2.674l-1.618-3.115c-0.315-0.605-0.673-1.336-1.024-1.914l0.002-0.023
			c-0.11-0.248-0.253-0.521-0.381-0.764c-0.479-0.908-0.903-1.874-1.399-2.769c-0.702-1.283-2.033-2.095-3.495-2.132
			c-0.351-0.01-1.034,0.06-1.339-0.026l-0.023-0.076C10.017,11.53,12.081,7.74,12.463,7.054z"></path>
		<g>
			<path fill="#EAF7FE" d="M16.119,18.094c-0.207,0.352-0.407,0.748-0.591,1.111c-0.072,0.141-0.142,0.277-0.207,0.404l-1.674,3.205
				c-1.217,2.316-2.027,3.65-4.556,4.178c-0.606,0.127-1.35,0.143-1.929,0.143c-0.268,0-0.537-0.004-0.805-0.008
				c-0.262-0.004-0.521-0.008-0.771-0.008c-0.243,0-0.479,0.004-0.702,0.014c-0.215,0.01-0.769,0.02-1.314,0.02
				c-0.484,0-0.87-0.008-1.091-0.02c0.095-0.215,0.315-0.654,0.658-1.316l0.081-0.154l2.139-4.158c0.466-1.027,0.9-1.75,1.746-2.396
				c1.225-0.936,2.52-1.01,4.084-1.01h0.333h0.271L14.67,18.1l0.381,0.002l0.44,0.002C15.679,18.104,15.898,18.102,16.119,18.094
				 M16.585,17.812L16.52,17.82c-0.304,0.027-0.667,0.033-1.027,0.033c-0.286,0-0.571-0.004-0.821-0.004l-2.879-0.002
				c-0.202,0-0.402-0.002-0.603-0.002c-1.521,0-2.931,0.064-4.236,1.062c-0.9,0.689-1.358,1.471-1.82,2.49l-2.135,4.148
				c-0.12,0.234-0.772,1.473-0.811,1.66l0.087,0.154C2.449,27.391,3.008,27.4,3.572,27.4c0.552,0,1.109-0.01,1.325-0.02
				c0.22-0.01,0.452-0.014,0.691-0.014c0.506,0,1.045,0.016,1.575,0.016c0.704,0,1.396-0.025,1.979-0.148
				c2.705-0.561,3.566-2.098,4.727-4.305l1.674-3.207c0.301-0.576,0.671-1.367,1.039-1.889L16.585,17.812L16.585,17.812z"></path>
		</g>
		<path fill="#EAF7FE" d="M5.132,21.398c0.026,0.311-0.033,1.301-0.035,1.719c-0.008,1.408-0.005,2.816,0.01,4.225
			c-0.773-0.002-2.098-0.043-2.832,0.021l-0.087-0.156c0.038-0.188,0.689-1.426,0.811-1.66L5.132,21.398z"></path>
	</g>
	<rect fill="none" width="32" height="32"></rect>
</g></svg></g></g></svg></g></svg>